<mxfile host="Electron" modified="2024-07-10T15:47:45.233Z" agent="Mozilla/5.0 (Windows NT 10.0; Win64; x64) AppleWebKit/537.36 (KHTML, like Gecko) draw.io/24.5.3 Chrome/124.0.6367.207 Electron/30.0.6 Safari/537.36" etag="ieUzXzqHu8iJuRICUSEQ" version="24.5.3" type="device">
  <diagram id="C5RBs43oDa-KdzZeNtuy" name="Page-1">
    <mxGraphModel dx="1036" dy="606" grid="1" gridSize="10" guides="1" tooltips="1" connect="1" arrows="1" fold="1" page="1" pageScale="1" pageWidth="827" pageHeight="1169" math="0" shadow="0">
      <root>
        <mxCell id="WIyWlLk6GJQsqaUBKTNV-0" />
        <mxCell id="WIyWlLk6GJQsqaUBKTNV-1" parent="WIyWlLk6GJQsqaUBKTNV-0" />
        <mxCell id="KlMeQNGwliNJjcAqZSJ0-14" value="" style="rounded=0;whiteSpace=wrap;html=1;" vertex="1" parent="WIyWlLk6GJQsqaUBKTNV-1">
          <mxGeometry x="130" y="70" width="580" height="600" as="geometry" />
        </mxCell>
        <mxCell id="KlMeQNGwliNJjcAqZSJ0-25" style="rounded=0;orthogonalLoop=1;jettySize=auto;html=1;exitX=1;exitY=0.3333333333333333;exitDx=0;exitDy=0;exitPerimeter=0;entryX=0;entryY=0.5;entryDx=0;entryDy=0;endArrow=none;endFill=0;" edge="1" parent="WIyWlLk6GJQsqaUBKTNV-1" source="KlMeQNGwliNJjcAqZSJ0-0" target="KlMeQNGwliNJjcAqZSJ0-22">
          <mxGeometry relative="1" as="geometry" />
        </mxCell>
        <mxCell id="KlMeQNGwliNJjcAqZSJ0-36" style="rounded=0;orthogonalLoop=1;jettySize=auto;html=1;exitX=1;exitY=0.3333333333333333;exitDx=0;exitDy=0;exitPerimeter=0;entryX=0;entryY=0.5;entryDx=0;entryDy=0;endArrow=none;endFill=0;" edge="1" parent="WIyWlLk6GJQsqaUBKTNV-1" source="KlMeQNGwliNJjcAqZSJ0-0" target="KlMeQNGwliNJjcAqZSJ0-21">
          <mxGeometry relative="1" as="geometry" />
        </mxCell>
        <mxCell id="KlMeQNGwliNJjcAqZSJ0-37" style="rounded=0;orthogonalLoop=1;jettySize=auto;html=1;exitX=1;exitY=0.3333333333333333;exitDx=0;exitDy=0;exitPerimeter=0;entryX=0;entryY=0.5;entryDx=0;entryDy=0;endArrow=none;endFill=0;" edge="1" parent="WIyWlLk6GJQsqaUBKTNV-1" source="KlMeQNGwliNJjcAqZSJ0-0" target="KlMeQNGwliNJjcAqZSJ0-19">
          <mxGeometry relative="1" as="geometry" />
        </mxCell>
        <mxCell id="KlMeQNGwliNJjcAqZSJ0-38" style="rounded=0;orthogonalLoop=1;jettySize=auto;html=1;exitX=1;exitY=0.3333333333333333;exitDx=0;exitDy=0;exitPerimeter=0;entryX=0;entryY=0.5;entryDx=0;entryDy=0;endArrow=none;endFill=0;" edge="1" parent="WIyWlLk6GJQsqaUBKTNV-1" source="KlMeQNGwliNJjcAqZSJ0-0" target="KlMeQNGwliNJjcAqZSJ0-28">
          <mxGeometry relative="1" as="geometry" />
        </mxCell>
        <mxCell id="KlMeQNGwliNJjcAqZSJ0-0" value="Student" style="shape=umlActor;verticalLabelPosition=bottom;verticalAlign=top;html=1;fillColor=#6d8764;fontColor=#ffffff;strokeColor=#3A5431;" vertex="1" parent="WIyWlLk6GJQsqaUBKTNV-1">
          <mxGeometry x="60" y="440" width="30" height="60" as="geometry" />
        </mxCell>
        <mxCell id="KlMeQNGwliNJjcAqZSJ0-2" value="&lt;font style=&quot;font-size: 20px;&quot;&gt;Student Management System&lt;/font&gt;" style="text;html=1;align=center;verticalAlign=middle;whiteSpace=wrap;rounded=0;" vertex="1" parent="WIyWlLk6GJQsqaUBKTNV-1">
          <mxGeometry x="280" y="90" width="301" height="30" as="geometry" />
        </mxCell>
        <mxCell id="KlMeQNGwliNJjcAqZSJ0-33" style="rounded=0;orthogonalLoop=1;jettySize=auto;html=1;exitX=0;exitY=0.3333333333333333;exitDx=0;exitDy=0;exitPerimeter=0;entryX=1;entryY=0.5;entryDx=0;entryDy=0;endArrow=none;endFill=0;" edge="1" parent="WIyWlLk6GJQsqaUBKTNV-1" source="KlMeQNGwliNJjcAqZSJ0-5" target="KlMeQNGwliNJjcAqZSJ0-20">
          <mxGeometry relative="1" as="geometry" />
        </mxCell>
        <mxCell id="KlMeQNGwliNJjcAqZSJ0-34" style="rounded=0;orthogonalLoop=1;jettySize=auto;html=1;exitX=0;exitY=0.3333333333333333;exitDx=0;exitDy=0;exitPerimeter=0;entryX=1;entryY=0.5;entryDx=0;entryDy=0;endArrow=none;endFill=0;" edge="1" parent="WIyWlLk6GJQsqaUBKTNV-1" source="KlMeQNGwliNJjcAqZSJ0-5" target="KlMeQNGwliNJjcAqZSJ0-27">
          <mxGeometry relative="1" as="geometry" />
        </mxCell>
        <mxCell id="KlMeQNGwliNJjcAqZSJ0-35" style="rounded=0;orthogonalLoop=1;jettySize=auto;html=1;exitX=0;exitY=0.3333333333333333;exitDx=0;exitDy=0;exitPerimeter=0;entryX=1;entryY=0.5;entryDx=0;entryDy=0;endArrow=none;endFill=0;" edge="1" parent="WIyWlLk6GJQsqaUBKTNV-1" source="KlMeQNGwliNJjcAqZSJ0-5" target="KlMeQNGwliNJjcAqZSJ0-26">
          <mxGeometry relative="1" as="geometry" />
        </mxCell>
        <mxCell id="KlMeQNGwliNJjcAqZSJ0-5" value="Instructor" style="shape=umlActor;verticalLabelPosition=bottom;verticalAlign=top;html=1;fillColor=#d5e8d4;strokeColor=#82b366;" vertex="1" parent="WIyWlLk6GJQsqaUBKTNV-1">
          <mxGeometry x="760" y="440" width="30" height="60" as="geometry" />
        </mxCell>
        <mxCell id="KlMeQNGwliNJjcAqZSJ0-16" value="Login" style="ellipse;whiteSpace=wrap;html=1;fillColor=#647687;strokeColor=#314354;fontColor=#ffffff;" vertex="1" parent="WIyWlLk6GJQsqaUBKTNV-1">
          <mxGeometry x="370.5" y="430" width="120" height="80" as="geometry" />
        </mxCell>
        <mxCell id="KlMeQNGwliNJjcAqZSJ0-17" style="edgeStyle=orthogonalEdgeStyle;rounded=0;orthogonalLoop=1;jettySize=auto;html=1;exitX=0;exitY=0.3333333333333333;exitDx=0;exitDy=0;exitPerimeter=0;entryX=0.979;entryY=0.373;entryDx=0;entryDy=0;entryPerimeter=0;endArrow=none;endFill=0;" edge="1" parent="WIyWlLk6GJQsqaUBKTNV-1" source="KlMeQNGwliNJjcAqZSJ0-5" target="KlMeQNGwliNJjcAqZSJ0-16">
          <mxGeometry relative="1" as="geometry" />
        </mxCell>
        <mxCell id="KlMeQNGwliNJjcAqZSJ0-19" value="View Course" style="ellipse;whiteSpace=wrap;html=1;fillColor=#6d8764;fontColor=#ffffff;strokeColor=#3A5431;" vertex="1" parent="WIyWlLk6GJQsqaUBKTNV-1">
          <mxGeometry x="210" y="160" width="120" height="80" as="geometry" />
        </mxCell>
        <mxCell id="KlMeQNGwliNJjcAqZSJ0-20" value="Add/Update/Remove Students" style="ellipse;whiteSpace=wrap;html=1;fillColor=#d5e8d4;strokeColor=#82b366;" vertex="1" parent="WIyWlLk6GJQsqaUBKTNV-1">
          <mxGeometry x="540" y="160" width="120" height="80" as="geometry" />
        </mxCell>
        <mxCell id="KlMeQNGwliNJjcAqZSJ0-21" value="View Course Subjects" style="ellipse;whiteSpace=wrap;html=1;fillColor=#6d8764;fontColor=#ffffff;strokeColor=#3A5431;" vertex="1" parent="WIyWlLk6GJQsqaUBKTNV-1">
          <mxGeometry x="210" y="270" width="120" height="80" as="geometry" />
        </mxCell>
        <mxCell id="KlMeQNGwliNJjcAqZSJ0-23" style="edgeStyle=orthogonalEdgeStyle;rounded=0;orthogonalLoop=1;jettySize=auto;html=1;exitX=1;exitY=0.3333333333333333;exitDx=0;exitDy=0;exitPerimeter=0;endArrow=none;endFill=0;entryX=0.026;entryY=0.353;entryDx=0;entryDy=0;entryPerimeter=0;" edge="1" parent="WIyWlLk6GJQsqaUBKTNV-1" source="KlMeQNGwliNJjcAqZSJ0-0" target="KlMeQNGwliNJjcAqZSJ0-16">
          <mxGeometry relative="1" as="geometry">
            <mxPoint x="370" y="460" as="targetPoint" />
            <Array as="points">
              <mxPoint x="374" y="460" />
            </Array>
          </mxGeometry>
        </mxCell>
        <mxCell id="KlMeQNGwliNJjcAqZSJ0-22" value="View Grades" style="ellipse;whiteSpace=wrap;html=1;fillColor=#6d8764;fontColor=#ffffff;strokeColor=#3A5431;" vertex="1" parent="WIyWlLk6GJQsqaUBKTNV-1">
          <mxGeometry x="210" y="360" width="120" height="80" as="geometry" />
        </mxCell>
        <mxCell id="KlMeQNGwliNJjcAqZSJ0-29" style="edgeStyle=orthogonalEdgeStyle;rounded=0;orthogonalLoop=1;jettySize=auto;html=1;exitX=0;exitY=0.5;exitDx=0;exitDy=0;entryX=1;entryY=0.5;entryDx=0;entryDy=0;dashed=1;dashPattern=1 4;strokeWidth=1;endArrow=classicThin;endFill=1;" edge="1" parent="WIyWlLk6GJQsqaUBKTNV-1" source="KlMeQNGwliNJjcAqZSJ0-26" target="KlMeQNGwliNJjcAqZSJ0-28">
          <mxGeometry relative="1" as="geometry" />
        </mxCell>
        <mxCell id="KlMeQNGwliNJjcAqZSJ0-30" value="&amp;lt;extend&amp;gt;" style="edgeLabel;html=1;align=center;verticalAlign=middle;resizable=0;points=[];" vertex="1" connectable="0" parent="KlMeQNGwliNJjcAqZSJ0-29">
          <mxGeometry x="0.2324" y="-2" relative="1" as="geometry">
            <mxPoint as="offset" />
          </mxGeometry>
        </mxCell>
        <mxCell id="KlMeQNGwliNJjcAqZSJ0-26" value="Manage Assignments" style="ellipse;whiteSpace=wrap;html=1;fillColor=#d5e8d4;strokeColor=#82b366;" vertex="1" parent="WIyWlLk6GJQsqaUBKTNV-1">
          <mxGeometry x="540" y="490" width="120" height="80" as="geometry" />
        </mxCell>
        <mxCell id="KlMeQNGwliNJjcAqZSJ0-27" value="Manage Grades" style="ellipse;whiteSpace=wrap;html=1;fillColor=#d5e8d4;strokeColor=#82b366;" vertex="1" parent="WIyWlLk6GJQsqaUBKTNV-1">
          <mxGeometry x="540" y="360" width="120" height="80" as="geometry" />
        </mxCell>
        <mxCell id="KlMeQNGwliNJjcAqZSJ0-28" value="View Assignments" style="ellipse;whiteSpace=wrap;html=1;fillColor=#6d8764;fontColor=#ffffff;strokeColor=#3A5431;" vertex="1" parent="WIyWlLk6GJQsqaUBKTNV-1">
          <mxGeometry x="210" y="490" width="120" height="80" as="geometry" />
        </mxCell>
        <mxCell id="KlMeQNGwliNJjcAqZSJ0-31" style="edgeStyle=orthogonalEdgeStyle;rounded=0;orthogonalLoop=1;jettySize=auto;html=1;exitX=0;exitY=0.5;exitDx=0;exitDy=0;entryX=1;entryY=0.5;entryDx=0;entryDy=0;dashed=1;dashPattern=1 4;strokeWidth=1;endArrow=classicThin;endFill=1;" edge="1" parent="WIyWlLk6GJQsqaUBKTNV-1">
          <mxGeometry relative="1" as="geometry">
            <mxPoint x="540" y="399.5" as="sourcePoint" />
            <mxPoint x="330" y="399.5" as="targetPoint" />
          </mxGeometry>
        </mxCell>
        <mxCell id="KlMeQNGwliNJjcAqZSJ0-32" value="&amp;lt;extend&amp;gt;" style="edgeLabel;html=1;align=center;verticalAlign=middle;resizable=0;points=[];" vertex="1" connectable="0" parent="KlMeQNGwliNJjcAqZSJ0-31">
          <mxGeometry x="0.2324" y="-2" relative="1" as="geometry">
            <mxPoint as="offset" />
          </mxGeometry>
        </mxCell>
      </root>
    </mxGraphModel>
  </diagram>
</mxfile>
